# xmcd
#
# Track frame offsets:
#	150
#	19983
#	34760
#	50936
#	64251
#	77084
#	107182
#	124243
#	139564
#	160728
#	183359
#	201745
#	224588
#	241293
#	255568
#
# Disc length: 3688 seconds
#
# Revision: 1
# Processed by: cddbd v1.5.1PL0 Copyright (c) Steve Scherf et al.
# Submitted via: CDex 1.50Beta5
#
DISCID=e50e660f
DTITLE=松山千春 - 松山千春BEST
DYEAR=1900
DGENRE=
TTITLE0=かざぐるま
TTITLE1=季節の中で
TTITLE2=銀の雨
TTITLE3=空を飛ぶ鳥のように野を駈ける風のように
TTITLE4=君のために作った歌
TTITLE5=私を見つめて
TTITLE6=時のいたずら
TTITLE7=青春
TTITLE8=雪化粧
TTITLE9=窓
TTITLE10=空と大地の中で
TTITLE11=長い夜
TTITLE12=夜明け
TTITLE13=旅立ち
TTITLE14=恋
EXTD=
EXTT0=
EXTT1=
EXTT2=
EXTT3=
EXTT4=
EXTT5=
EXTT6=
EXTT7=
EXTT8=
EXTT9=
EXTT10=
EXTT11=
EXTT12=
EXTT13=
EXTT14=
PLAYORDER=
